HIERARCHY
ROOT Hips
{
	OFFSET 0.000000 88.474243 0.000000
	CHANNELS 6 Xposition Yposition Zposition Zrotation Yrotation Xrotation 
	JOINT Hips_Spine
	{
		OFFSET 0.000000 0.000000 0.000000
		CHANNELS 3 Zrotation Yrotation Xrotation
		JOINT Spine
		{
			OFFSET 0.005100 8.711998 -0.691000
			CHANNELS 3 Zrotation Yrotation Xrotation
			JOINT Spine1
			{
				OFFSET -0.009200 8.660301 -1.275000
				CHANNELS 3 Zrotation Yrotation Xrotation
				JOINT Spine2
				{
					OFFSET 0.006300 9.852501 -1.857000
					CHANNELS 3 Zrotation Yrotation Xrotation
					JOINT Spine2_Neck
					{
						OFFSET 0.000000 0.000000 0.000000
						CHANNELS 3 Zrotation Yrotation Xrotation
						JOINT Neck
						{
							OFFSET 0.016300 11.420799 -0.263300
							CHANNELS 3 Zrotation Yrotation Xrotation
							End Site #name: Head
							{
								OFFSET -0.019200 9.262405 2.362500
							}
						}
					}
					JOINT Spine2_LeftShoulder
					{
						OFFSET 0.000000 0.000000 0.000000
						CHANNELS 3 Zrotation Yrotation Xrotation
						JOINT LeftShoulder
						{
							OFFSET 5.616900 6.732201 -0.345700
							CHANNELS 3 Zrotation Yrotation Xrotation
							JOINT LeftArm
							{
								OFFSET 10.664888 -0.183372 -2.440700
								CHANNELS 3 Zrotation Yrotation Xrotation
								JOINT LeftForeArm
								{
									OFFSET 27.459126 0.000000 0.000000
									CHANNELS 3 Zrotation Yrotation Xrotation
									End Site #name: LeftHand
									{
										OFFSET 21.306858 0.000000 0.000000
									}
								}
							}
						}
					}
					JOINT Spine2_RightShoulder
					{
						OFFSET 0.000000 0.000000 0.000000
						CHANNELS 3 Zrotation Yrotation Xrotation
						JOINT RightShoulder
						{
							OFFSET -5.580300 6.737503 -0.344400
							CHANNELS 3 Zrotation Yrotation Xrotation
							JOINT RightArm
							{
								OFFSET -10.679335 -0.188484 -2.383900
								CHANNELS 3 Zrotation Yrotation Xrotation
								JOINT RightForeArm
								{
									OFFSET -27.503529 0.000000 0.000000
									CHANNELS 3 Zrotation Yrotation Xrotation
									End Site #name: RightHand
									{
										OFFSET -21.306808 0.000000 0.000000
									}
								}
							}
						}
					}
				}
			}
		}
	}
	JOINT Hips_LeftUpLeg
	{
		OFFSET 0.000000 0.000000 0.000000
		CHANNELS 3 Zrotation Yrotation Xrotation
		JOINT LeftUpLeg
		{
			OFFSET 6.857700 -6.739601 0.312100
			CHANNELS 3 Zrotation Yrotation Xrotation
			JOINT LeftLeg
			{
				OFFSET -0.367590 -34.731552 -4.572400
				CHANNELS 3 Zrotation Yrotation Xrotation
				End Site #name: LeftFoot
				{
					OFFSET 0.367590 -34.656704 -6.067400
				}
			}
		}
	}
	JOINT Hips_RightUpLeg
	{
		OFFSET 0.000000 0.000000 0.000000
		CHANNELS 3 Zrotation Yrotation Xrotation
		JOINT RightUpLeg
		{
			OFFSET -6.876100 -6.733299 0.301000
			CHANNELS 3 Zrotation Yrotation Xrotation
			JOINT RightLeg
			{
				OFFSET 0.347353 -34.795158 -4.515900
				CHANNELS 3 Zrotation Yrotation Xrotation
				End Site #name: RightFoot
				{
					OFFSET -0.347353 -34.589367 -6.070300
				}
			}
		}
	}
}
MOTION
Frames: 14
Frame Time: 0.041667
0.141850 0.102908 1.780218 0.101754 24.724839 -6.530148 -0.000000 0.000000 0.000000 0.043358 -1.042180 -4.942575 2.579035 -1.579860 -2.709534 0.000000 0.000000 0.000000 2.886825 -1.145810 -3.216274 3.218140 -3.605175 -2.290280 2.015242 -1.462929 -3.057143 -20.980957 -0.328355 7.251879 -52.086019 9.481476 13.707602 -0.597189 -21.140761 7.547043 1.926604 -1.452351 -1.357587 9.771600 6.891359 1.847454 62.111797 -0.307982 -10.637986 0.684060 43.030643 -0.645931 0.000000 -0.000000 -0.000000 -8.103640 19.485289 -2.944924 -2.687738 2.192711 20.743158 0.000000 0.000000 0.000000 -4.316307 1.997946 -22.836856 4.549430 -2.458522 19.294180 
-0.126231 0.059123 2.053166 -0.395138 26.708404 -6.961838 -0.000000 -0.000000 0.000000 1.028786 -0.712798 -5.181633 2.727626 -1.585049 -2.668030 0.000000 0.000000 0.000000 3.018330 -1.101346 -3.176614 3.336484 -3.647713 -1.943567 2.181708 -1.441884 -2.974350 -20.461237 -0.284065 7.301829 -52.900876 10.268263 13.210144 -0.657872 -21.791752 7.439906 2.079534 -1.414141 -1.348517 9.857351 7.035633 1.889468 62.046673 -0.301030 -10.446280 0.685573 43.336473 -0.646549 0.000000 -0.000000 -0.000000 -7.160849 20.052490 -1.938952 -3.164468 1.838435 20.050698 0.000000 -0.000000 0.000000 -3.574288 1.910829 -23.120494 4.233641 -3.706655 19.878811 
-0.357974 0.014564 2.332842 -0.842385 28.011913 -7.365546 -0.000000 -0.000000 0.000000 1.917807 -0.374735 -5.313318 2.847906 -1.578308 -2.622977 0.000000 0.000000 0.000000 3.126878 -1.053058 -3.129337 3.418745 -3.687415 -1.582796 2.320558 -1.422517 -2.896144 -19.982397 -0.252292 7.314552 -53.696124 10.966837 12.661540 -0.737198 -22.514536 7.342367 2.206115 -1.374332 -1.335418 9.935612 7.184332 1.944276 61.992105 -0.321220 -10.285359 0.688406 43.676284 -0.644555 0.000000 -0.000000 -0.000000 -6.094176 20.518628 -1.073052 -3.817220 1.465589 19.744609 0.000000 -0.000000 0.000000 -2.906943 1.836303 -23.345149 4.066109 -4.629053 20.587332 
-0.536438 -0.028836 2.617085 -1.157374 28.559073 -7.668470 -0.000000 -0.000000 0.000000 2.539514 -0.122392 -5.468980 2.940882 -1.563379 -2.571425 0.000000 0.000000 0.000000 3.217998 -1.010487 -3.075026 3.487837 -3.719452 -1.242403 2.436277 -1.400020 -2.812473 -19.525658 -0.250744 7.302413 -54.472207 11.604470 12.134576 -0.813573 -23.166911 7.263117 2.309218 -1.334673 -1.312300 9.984241 7.299662 2.001606 61.934185 -0.378362 -10.131172 0.693257 44.042751 -0.639053 0.000000 -0.000000 -0.000000 -5.053719 20.804771 -0.365104 -4.526247 0.997997 19.848084 0.000000 -0.000000 0.000000 -2.296001 1.803703 -23.642213 4.066183 -5.226959 21.513635 
-0.661561 -0.071976 2.895882 -1.268238 28.165949 -7.798878 -0.000000 -0.000000 0.000000 2.923195 -0.006783 -5.601438 3.022480 -1.553331 -2.513451 0.000000 0.000000 0.000000 3.297245 -0.968801 -3.010088 3.538884 -3.685547 -0.951509 2.538213 -1.375149 -2.720773 -19.095489 -0.272964 7.257908 -55.199917 12.139749 11.587220 -0.902482 -23.727236 7.210833 2.398215 -1.289354 -1.281192 10.027691 7.392820 2.053691 61.856791 -0.434603 -9.953651 0.701854 44.440221 -0.632182 0.000000 -0.000000 -0.000000 -4.185612 20.682496 0.170587 -4.981637 0.583793 20.333708 0.000000 -0.000000 0.000000 -1.746394 1.814748 -24.021973 4.061364 -5.647753 22.545215 
-0.735249 -0.115414 3.159765 -1.209111 26.827433 -7.802618 -0.000000 -0.000000 0.000000 3.169631 -0.024678 -5.681425 3.093097 -1.542663 -2.443560 0.000000 0.000000 0.000000 3.364987 -0.931328 -2.928480 3.566395 -3.624348 -0.615108 2.628110 -1.348839 -2.612111 -18.734019 -0.318613 7.181972 -55.844856 12.570032 11.068964 -0.995363 -24.184137 7.153400 2.477112 -1.249044 -1.243163 10.130072 7.473409 2.098116 61.750253 -0.468555 -9.741170 0.711721 44.840570 -0.622935 0.000000 -0.000000 -0.000000 -3.452689 20.131055 0.564755 -5.226536 0.363373 20.960331 0.000000 -0.000000 0.000000 -1.256932 1.898977 -24.409038 4.095790 -5.934802 23.607685 
-0.754555 -0.158918 3.406255 -1.034843 24.729182 -7.735409 -0.000000 -0.000000 0.000000 3.372261 -0.134145 -5.670228 3.158369 -1.533992 -2.355156 0.000000 0.000000 0.000000 3.423191 -0.895279 -2.830109 3.581600 -3.519369 -0.235542 2.712958 -1.323300 -2.490351 -18.470227 -0.381742 7.068771 -56.384935 12.842486 10.646587 -1.091365 -24.521164 7.087982 2.545486 -1.211164 -1.201235 10.273595 7.536497 2.132677 61.614582 -0.434862 -9.501566 0.724249 45.296352 -0.613566 0.000000 -0.000000 -0.000000 -2.779493 19.487710 0.987582 -5.612973 0.229170 21.417169 0.000000 -0.000000 0.000000 -0.840319 2.072036 -24.767472 4.246697 -5.993952 24.695282 
-0.710783 -0.201430 3.637441 -0.754456 21.870437 -7.590680 -0.000000 -0.000000 0.000000 3.547035 -0.334007 -5.611379 3.216940 -1.530099 -2.251888 0.000000 0.000000 0.000000 3.476781 -0.870366 -2.731349 3.580256 -3.392096 0.158093 2.795717 -1.304230 -2.360402 -18.288777 -0.449907 6.946720 -56.777968 12.958081 10.360210 -1.185684 -24.739074 7.038589 2.607152 -1.183487 -1.155870 10.435281 7.581120 2.158691 61.466111 -0.335016 -9.253359 0.738003 45.841611 -0.603605 0.000000 -0.000000 -0.000000 -2.184829 18.831567 1.256574 -6.156077 -0.099292 22.242019 0.000000 -0.000000 0.000000 -0.496174 2.317789 -25.138982 4.435595 -6.001685 25.791232 
-0.593943 -0.243722 3.844599 -0.359320 17.811661 -7.368473 -0.000000 -0.000000 0.000000 3.687336 -0.599299 -5.502821 3.276335 -1.531812 -2.143143 0.000000 0.000000 0.000000 3.527507 -0.856143 -2.630055 3.580127 -3.213337 0.540853 2.878954 -1.292927 -2.230403 -18.189115 -0.519807 6.823952 -57.080058 12.891643 10.174178 -1.263144 -24.896160 6.980174 2.665946 -1.166535 -1.106349 10.596814 7.608124 2.176430 61.315769 -0.227649 -9.006795 0.754232 46.472716 -0.595117 0.000000 -0.000000 -0.000000 -1.719956 18.115600 1.313545 -6.689737 -0.746661 23.489337 0.000000 -0.000000 0.000000 -0.240468 2.645524 -25.540301 4.577670 -6.025699 26.849412 
-0.410866 -0.282803 4.020190 0.152037 12.402533 -7.092699 -0.000000 -0.000000 0.000000 3.781388 -0.932458 -5.378891 3.338714 -1.539666 -2.030487 0.000000 0.000000 0.000000 3.575704 -0.850485 -2.529996 3.568351 -3.018726 0.841807 2.965615 -1.292464 -2.106715 -18.139096 -0.576047 6.714493 -57.295338 12.789096 10.181246 -1.335363 -24.942101 6.911840 2.725529 -1.160883 -1.059407 10.707623 7.633056 2.184002 61.179681 -0.157511 -8.801103 0.770949 47.125179 -0.587687 0.000000 -0.000000 -0.000000 -1.408211 17.414588 1.244521 -6.911672 -1.232652 25.948617 0.000000 -0.000000 0.000000 -0.096093 3.067484 -25.998409 4.701099 -6.027066 27.857774 
-0.176428 -0.316403 4.160204 0.707745 6.145410 -6.847532 -0.000000 -0.000000 0.000000 3.829945 -1.302439 -5.252659 3.414186 -1.558706 -1.924938 0.000000 0.000000 0.000000 3.625517 -0.851131 -2.439009 3.563269 -2.860453 1.044605 3.056633 -1.296085 -1.992883 -18.153042 -0.612351 6.635896 -57.414530 12.696609 10.288479 -1.400123 -25.011742 6.798354 2.791344 -1.167363 -1.020597 10.764469 7.655537 2.181365 61.084029 -0.124774 -8.626283 0.787007 47.723131 -0.580825 0.000000 -0.000000 -0.000000 -1.271638 16.751512 1.043664 -7.046566 -1.424975 28.618878 0.000000 -0.000000 0.000000 -0.076570 3.566486 -26.498430 4.807603 -5.996223 28.805861 
0.097685 -0.344552 4.259642 1.249290 -0.087029 -6.653793 -0.000000 -0.000000 0.000000 3.898905 -1.708210 -5.074541 3.500802 -1.590904 -1.835418 0.000000 0.000000 0.000000 3.679900 -0.857224 -2.351404 3.565057 -2.740626 1.161751 3.151695 -1.308781 -1.896451 -18.241303 -0.625573 6.577861 -57.456542 12.644803 10.509509 -1.455049 -25.096335 6.641303 2.861181 -1.185117 -0.989811 10.770204 7.673590 2.174343 61.043516 -0.155772 -8.520380 0.802025 48.198990 -0.575161 0.000000 -0.000000 -0.000000 -1.458088 15.998764 0.724308 -7.203742 -1.889803 30.883431 0.000000 -0.000000 0.000000 -0.174069 4.054025 -26.984229 4.991056 -5.826304 29.693303 
0.406529 -0.370318 4.319401 1.777869 -6.200195 -6.639611 -0.000000 -0.000000 0.000000 4.024505 -1.930826 -4.900120 3.590075 -1.625349 -1.759310 0.000000 0.000000 0.000000 3.733361 -0.866449 -2.274141 3.552782 -2.647494 1.272046 3.232442 -1.323684 -1.820819 -18.402460 -0.622466 6.527317 -57.386530 12.650951 10.764314 -1.505527 -25.198049 6.461795 2.930564 -1.209157 -0.967407 10.715109 7.691508 2.162954 61.057704 -0.264283 -8.477196 0.815825 48.514868 -0.567881 0.000000 -0.000000 -0.000000 -1.990746 15.060156 0.218180 -7.250516 -2.380159 32.639066 0.000000 -0.000000 0.000000 -0.399728 4.433250 -27.415457 5.247327 -5.536424 30.532881 
0.740063 -0.399586 4.338997 2.329355 -12.053817 -6.726111 -0.000000 -0.000000 0.000000 4.142341 -2.091525 -4.701266 3.678705 -1.661631 -1.689857 0.000000 0.000000 0.000000 3.784038 -0.876512 -2.205788 3.523420 -2.571119 1.374478 3.310229 -1.339515 -1.763435 -18.618392 -0.597556 6.462685 -57.241307 12.739838 10.960111 -1.542241 -25.271002 6.270846 2.995914 -1.233906 -0.951048 10.593481 7.713667 2.148667 61.126154 -0.435728 -8.492876 0.829126 48.667328 -0.558828 0.000000 -0.000000 -0.000000 -2.859916 13.991605 -0.411000 -7.066915 -2.798367 33.640807 0.000000 -0.000000 0.000000 -0.771115 4.652232 -27.881526 5.544769 -5.167415 31.495327 
